<svg id="visual" viewBox="0 0 900 600" width="900" height="600" xmlns="http://www.w3.org/2000/svg" xmlns:xlink="http://www.w3.org/1999/xlink" version="1.1"><rect x="0" y="0" width="900" height="600" fill="#186cff"></rect><path d="M0 450L16.7 436.8C33.3 423.7 66.7 397.3 100 403.7C133.3 410 166.7 449 200 466.2C233.3 483.3 266.7 478.7 300 462C333.3 445.3 366.7 416.7 400 417.5C433.3 418.3 466.7 448.7 500 446.8C533.3 445 566.7 411 600 395.7C633.3 380.3 666.7 383.7 700 397C733.3 410.3 766.7 433.7 800 434C833.3 434.3 866.7 411.7 883.3 400.3L900 389L900 601L883.3 601C866.7 601 833.3 601 800 601C766.7 601 733.3 601 700 601C666.7 601 633.3 601 600 601C566.7 601 533.3 601 500 601C466.7 601 433.3 601 400 601C366.7 601 333.3 601 300 601C266.7 601 233.3 601 200 601C166.7 601 133.3 601 100 601C66.7 601 33.3 601 16.7 601L0 601Z" fill="#FFF" stroke-linecap="round" stroke-linejoin="miter"></path></svg>