<svg id="visual" viewBox="0 0 900 600" width="900" height="600" xmlns="http://www.w3.org/2000/svg" xmlns:xlink="http://www.w3.org/1999/xlink" version="1.1"><rect x="0" y="0" width="900" height="600" fill="#fff"></rect><path d="M0 351L21.5 363.8C43 376.7 86 402.3 128.8 411.7C171.7 421 214.3 414 257.2 403.2C300 392.3 343 377.7 385.8 381.3C428.7 385 471.3 407 514.2 407.2C557 407.3 600 385.7 642.8 382.3C685.7 379 728.3 394 771.2 396.3C814 398.7 857 388.3 878.5 383.2L900 378L900 601L878.5 601C857 601 814 601 771.2 601C728.3 601 685.7 601 642.8 601C600 601 557 601 514.2 601C471.3 601 428.7 601 385.8 601C343 601 300 601 257.2 601C214.3 601 171.7 601 128.8 601C86 601 43 601 21.5 601L0 601Z" fill="#ff9836"></path><path d="M0 420L21.5 421C43 422 86 424 128.8 421.8C171.7 419.7 214.3 413.3 257.2 418.8C300 424.3 343 441.7 385.8 440.7C428.7 439.7 471.3 420.3 514.2 420.3C557 420.3 600 439.7 642.8 446.7C685.7 453.7 728.3 448.3 771.2 450.7C814 453 857 463 878.5 468L900 473L900 601L878.5 601C857 601 814 601 771.2 601C728.3 601 685.7 601 642.8 601C600 601 557 601 514.2 601C471.3 601 428.7 601 385.8 601C343 601 300 601 257.2 601C214.3 601 171.7 601 128.8 601C86 601 43 601 21.5 601L0 601Z" fill="#e68429"></path><path d="M0 500L21.5 499.8C43 499.7 86 499.3 128.8 494.8C171.7 490.3 214.3 481.7 257.2 476.8C300 472 343 471 385.8 472C428.7 473 471.3 476 514.2 478C557 480 600 481 642.8 474C685.7 467 728.3 452 771.2 451.7C814 451.3 857 465.7 878.5 472.8L900 480L900 601L878.5 601C857 601 814 601 771.2 601C728.3 601 685.7 601 642.8 601C600 601 557 601 514.2 601C471.3 601 428.7 601 385.8 601C343 601 300 601 257.2 601C214.3 601 171.7 601 128.8 601C86 601 43 601 21.5 601L0 601Z" fill="#ce711c"></path><path d="M0 505L21.5 502C43 499 86 493 128.8 496.2C171.7 499.3 214.3 511.7 257.2 517.8C300 524 343 524 385.8 524.2C428.7 524.3 471.3 524.7 514.2 523.3C557 522 600 519 642.8 515.5C685.7 512 728.3 508 771.2 504.8C814 501.7 857 499.3 878.5 498.2L900 497L900 601L878.5 601C857 601 814 601 771.2 601C728.3 601 685.7 601 642.8 601C600 601 557 601 514.2 601C471.3 601 428.7 601 385.8 601C343 601 300 601 257.2 601C214.3 601 171.7 601 128.8 601C86 601 43 601 21.5 601L0 601Z" fill="#b65e0e"></path><path d="M0 554L21.5 549.8C43 545.7 86 537.3 128.8 537.3C171.7 537.3 214.3 545.7 257.2 550.3C300 555 343 556 385.8 552.2C428.7 548.3 471.3 539.7 514.2 535C557 530.3 600 529.7 642.8 532.3C685.7 535 728.3 541 771.2 544C814 547 857 547 878.5 547L900 547L900 601L878.5 601C857 601 814 601 771.2 601C728.3 601 685.7 601 642.8 601C600 601 557 601 514.2 601C471.3 601 428.7 601 385.8 601C343 601 300 601 257.2 601C214.3 601 171.7 601 128.8 601C86 601 43 601 21.5 601L0 601Z" fill="#9e4c00"></path></svg>